<svg width="24" height="24" xmlns="http://www.w3.org/2000/svg">

 <g>
  <title>Layer 1</title>
  <path stroke-width="0" stroke="#00000000" id="path_0" d="m11.77695,0.08619c6.61944,0 12.23157,5.34779 12.23157,11.94455c0,6.59677 -5.36618,11.94456 -11.98563,11.94456c-6.61944,0 -11.98562,-5.34779 -11.98562,-11.94456c0,-6.59676 5.12024,-11.94455 11.73968,-11.94455zm4.49812,16.35318l-8.51252,0l-0.11092,0.00739c-0.3988,0.05396 -0.70628,0.39471 -0.70628,0.80701c0,0.41231 0.30748,0.75305 0.70628,0.80702l0.11092,0.00739l8.51252,0l0.11092,-0.00739c0.39879,-0.05397 0.70628,-0.39471 0.70628,-0.80702c0,-0.44976 -0.36589,-0.8144 -0.8172,-0.8144zm-4.25621,-11.18445c-0.45142,0 -0.8172,0.36464 -0.8172,0.8144l0,0l-0.00076,7.1081l-2.10457,-2.18911l-0.08989,-0.08079c-0.31479,-0.24334 -0.76926,-0.22673 -1.06552,0.05625c-0.3259,0.31121 -0.33691,0.82667 -0.02463,1.15145l0,0l3.02092,3.14153l0.11507,0.10783c0.59645,0.5033 1.49515,0.46736 2.04823,-0.10772l0,0l3.02103,-3.14164l0.07715,-0.09295c0.23056,-0.3238 0.19449,-0.77563 -0.10177,-1.0585c-0.32579,-0.31121 -0.84314,-0.30024 -1.15542,0.02454l0,0l-2.1062,2.18911l0.00076,-7.1081l-0.00751,-0.11054c-0.05416,-0.39743 -0.39607,-0.70386 -0.80969,-0.70386z" fill-rule="evenodd" fill="#FFFFFF"/>
 </g>
</svg>